<mxfile host="app.diagrams.net" modified="2020-11-30T18:05:29.717Z" agent="5.0 (X11)" etag="1mE9eLsMHYy6YttvmY13" version="13.10.4" type="github">
  <diagram id="-vBi4ZyErzq4BvxYHFU-" name="Page-1">
    <mxGraphModel dx="771" dy="443" grid="1" gridSize="10" guides="1" tooltips="1" connect="1" arrows="1" fold="1" page="1" pageScale="1" pageWidth="827" pageHeight="1169" math="0" shadow="0">
      <root>
        <mxCell id="0" />
        <mxCell id="1" parent="0" />
        <mxCell id="GvZSH2kwC6cOnJWHe7xY-3" value="&lt;h1 style=&quot;font-size: 20px&quot;&gt;&lt;font style=&quot;font-size: 20px&quot; face=&quot;Times New Roman&quot;&gt;&lt;span style=&quot;font-weight: normal&quot;&gt;Answers&lt;/span&gt;&lt;/font&gt;&lt;/h1&gt;" style="rounded=1;whiteSpace=wrap;html=1;" parent="1" vertex="1">
          <mxGeometry x="110" y="70" width="120" height="60" as="geometry" />
        </mxCell>
        <mxCell id="GvZSH2kwC6cOnJWHe7xY-4" value="&lt;font style=&quot;font-size: 20px&quot; face=&quot;Times New Roman&quot;&gt;Categories&lt;/font&gt;" style="rounded=1;whiteSpace=wrap;html=1;" parent="1" vertex="1">
          <mxGeometry x="340" y="70" width="120" height="60" as="geometry" />
        </mxCell>
        <mxCell id="GvZSH2kwC6cOnJWHe7xY-5" value="&lt;font style=&quot;font-size: 20px&quot; face=&quot;Times New Roman&quot;&gt;Questions&lt;/font&gt;" style="rounded=1;whiteSpace=wrap;html=1;" parent="1" vertex="1">
          <mxGeometry x="110" y="200" width="120" height="60" as="geometry" />
        </mxCell>
        <mxCell id="GvZSH2kwC6cOnJWHe7xY-6" value="&lt;font style=&quot;font-size: 20px&quot; face=&quot;Times New Roman&quot;&gt;Tests&lt;/font&gt;" style="rounded=1;whiteSpace=wrap;html=1;" parent="1" vertex="1">
          <mxGeometry x="340" y="200" width="120" height="60" as="geometry" />
        </mxCell>
        <mxCell id="GvZSH2kwC6cOnJWHe7xY-7" value="Users" style="rounded=1;whiteSpace=wrap;html=1;fontFamily=Times New Roman;fontSize=20;" parent="1" vertex="1">
          <mxGeometry x="570" y="330" width="120" height="60" as="geometry" />
        </mxCell>
        <mxCell id="GvZSH2kwC6cOnJWHe7xY-8" value="&lt;h1 style=&quot;font-size: 20px&quot;&gt;&lt;font face=&quot;Times New Roman&quot;&gt;&lt;span style=&quot;font-weight: normal&quot;&gt;UsersTests&lt;/span&gt;&lt;/font&gt;&lt;/h1&gt;" style="rounded=1;whiteSpace=wrap;html=1;fontStyle=0" parent="1" vertex="1">
          <mxGeometry x="570" y="200" width="120" height="60" as="geometry" />
        </mxCell>
        <mxCell id="GvZSH2kwC6cOnJWHe7xY-17" value="" style="endArrow=none;html=1;fontFamily=Times New Roman;fontSize=20;exitX=0.5;exitY=0;exitDx=0;exitDy=0;" parent="1" source="GvZSH2kwC6cOnJWHe7xY-5" target="GvZSH2kwC6cOnJWHe7xY-3" edge="1">
          <mxGeometry width="50" height="50" relative="1" as="geometry">
            <mxPoint x="145" y="180" as="sourcePoint" />
            <mxPoint x="165" y="132" as="targetPoint" />
          </mxGeometry>
        </mxCell>
        <mxCell id="GvZSH2kwC6cOnJWHe7xY-18" value="" style="endArrow=none;html=1;fontFamily=Times New Roman;fontSize=20;entryX=0.553;entryY=1.007;entryDx=0;entryDy=0;entryPerimeter=0;" parent="1" target="GvZSH2kwC6cOnJWHe7xY-3" edge="1">
          <mxGeometry width="50" height="50" relative="1" as="geometry">
            <mxPoint x="170" y="140" as="sourcePoint" />
            <mxPoint x="180" y="130" as="targetPoint" />
          </mxGeometry>
        </mxCell>
        <mxCell id="GvZSH2kwC6cOnJWHe7xY-19" value="" style="endArrow=none;html=1;fontFamily=Times New Roman;fontSize=20;entryX=0.453;entryY=1.009;entryDx=0;entryDy=0;entryPerimeter=0;" parent="1" target="GvZSH2kwC6cOnJWHe7xY-3" edge="1">
          <mxGeometry width="50" height="50" relative="1" as="geometry">
            <mxPoint x="170" y="140" as="sourcePoint" />
            <mxPoint x="160" y="131" as="targetPoint" />
          </mxGeometry>
        </mxCell>
        <mxCell id="GvZSH2kwC6cOnJWHe7xY-20" value="" style="endArrow=none;html=1;fontFamily=Times New Roman;fontSize=20;" parent="1" edge="1">
          <mxGeometry width="50" height="50" relative="1" as="geometry">
            <mxPoint x="160" y="190" as="sourcePoint" />
            <mxPoint x="180" y="190" as="targetPoint" />
          </mxGeometry>
        </mxCell>
        <mxCell id="GvZSH2kwC6cOnJWHe7xY-22" value="" style="endArrow=none;html=1;fontFamily=Times New Roman;fontSize=20;" parent="1" edge="1">
          <mxGeometry width="50" height="50" relative="1" as="geometry">
            <mxPoint x="160" y="180" as="sourcePoint" />
            <mxPoint x="180" y="180" as="targetPoint" />
          </mxGeometry>
        </mxCell>
        <mxCell id="GvZSH2kwC6cOnJWHe7xY-27" value="" style="endArrow=none;html=1;fontFamily=Times New Roman;fontSize=20;exitX=0.5;exitY=0;exitDx=0;exitDy=0;" parent="1" edge="1">
          <mxGeometry width="50" height="50" relative="1" as="geometry">
            <mxPoint x="400" y="200.36" as="sourcePoint" />
            <mxPoint x="400" y="130.36" as="targetPoint" />
          </mxGeometry>
        </mxCell>
        <mxCell id="GvZSH2kwC6cOnJWHe7xY-28" value="" style="endArrow=none;html=1;fontFamily=Times New Roman;fontSize=20;exitX=0.443;exitY=0.008;exitDx=0;exitDy=0;exitPerimeter=0;" parent="1" source="GvZSH2kwC6cOnJWHe7xY-6" edge="1">
          <mxGeometry width="50" height="50" relative="1" as="geometry">
            <mxPoint x="390" y="200" as="sourcePoint" />
            <mxPoint x="400" y="190" as="targetPoint" />
          </mxGeometry>
        </mxCell>
        <mxCell id="GvZSH2kwC6cOnJWHe7xY-29" value="" style="endArrow=none;html=1;fontFamily=Times New Roman;fontSize=20;exitX=0.556;exitY=-0.003;exitDx=0;exitDy=0;exitPerimeter=0;" parent="1" source="GvZSH2kwC6cOnJWHe7xY-6" edge="1">
          <mxGeometry width="50" height="50" relative="1" as="geometry">
            <mxPoint x="400" y="199" as="sourcePoint" />
            <mxPoint x="400" y="190" as="targetPoint" />
          </mxGeometry>
        </mxCell>
        <mxCell id="GvZSH2kwC6cOnJWHe7xY-31" value="" style="endArrow=none;html=1;fontFamily=Times New Roman;fontSize=20;" parent="1" edge="1">
          <mxGeometry width="50" height="50" relative="1" as="geometry">
            <mxPoint x="390" y="140.36" as="sourcePoint" />
            <mxPoint x="410" y="140.36" as="targetPoint" />
          </mxGeometry>
        </mxCell>
        <mxCell id="GvZSH2kwC6cOnJWHe7xY-32" value="" style="endArrow=none;html=1;fontFamily=Times New Roman;fontSize=20;" parent="1" edge="1">
          <mxGeometry width="50" height="50" relative="1" as="geometry">
            <mxPoint x="390" y="150" as="sourcePoint" />
            <mxPoint x="410" y="150" as="targetPoint" />
          </mxGeometry>
        </mxCell>
        <mxCell id="GvZSH2kwC6cOnJWHe7xY-33" value="" style="endArrow=none;html=1;fontFamily=Times New Roman;fontSize=20;exitX=0;exitY=0.5;exitDx=0;exitDy=0;entryX=1;entryY=0.5;entryDx=0;entryDy=0;" parent="1" source="4CY93P8wAlW1a-aKWTHy-26" target="GvZSH2kwC6cOnJWHe7xY-5" edge="1">
          <mxGeometry width="50" height="50" relative="1" as="geometry">
            <mxPoint x="290" y="260" as="sourcePoint" />
            <mxPoint x="290" y="190" as="targetPoint" />
          </mxGeometry>
        </mxCell>
        <mxCell id="GvZSH2kwC6cOnJWHe7xY-34" value="" style="endArrow=none;html=1;fontFamily=Times New Roman;fontSize=20;exitX=1;exitY=0.585;exitDx=0;exitDy=0;exitPerimeter=0;" parent="1" source="GvZSH2kwC6cOnJWHe7xY-5" edge="1">
          <mxGeometry width="50" height="50" relative="1" as="geometry">
            <mxPoint x="230" y="240" as="sourcePoint" />
            <mxPoint x="240" y="230" as="targetPoint" />
          </mxGeometry>
        </mxCell>
        <mxCell id="GvZSH2kwC6cOnJWHe7xY-35" value="" style="endArrow=none;html=1;fontFamily=Times New Roman;fontSize=20;entryX=0.998;entryY=0.422;entryDx=0;entryDy=0;entryPerimeter=0;" parent="1" target="GvZSH2kwC6cOnJWHe7xY-5" edge="1">
          <mxGeometry width="50" height="50" relative="1" as="geometry">
            <mxPoint x="239.96" y="230.36" as="sourcePoint" />
            <mxPoint x="229.99999999999997" y="220" as="targetPoint" />
          </mxGeometry>
        </mxCell>
        <mxCell id="GvZSH2kwC6cOnJWHe7xY-39" value="" style="endArrow=none;html=1;fontFamily=Times New Roman;fontSize=20;" parent="1" edge="1">
          <mxGeometry width="50" height="50" relative="1" as="geometry">
            <mxPoint x="330" y="240" as="sourcePoint" />
            <mxPoint x="330" y="220" as="targetPoint" />
          </mxGeometry>
        </mxCell>
        <mxCell id="GvZSH2kwC6cOnJWHe7xY-40" value="" style="endArrow=none;html=1;fontFamily=Times New Roman;fontSize=20;" parent="1" edge="1">
          <mxGeometry width="50" height="50" relative="1" as="geometry">
            <mxPoint x="320" y="240" as="sourcePoint" />
            <mxPoint x="320" y="220" as="targetPoint" />
          </mxGeometry>
        </mxCell>
        <mxCell id="GvZSH2kwC6cOnJWHe7xY-51" value="" style="endArrow=none;html=1;fontFamily=Times New Roman;fontSize=20;exitX=1;exitY=0.5;exitDx=0;exitDy=0;entryX=0;entryY=0.5;entryDx=0;entryDy=0;" parent="1" source="GvZSH2kwC6cOnJWHe7xY-52" target="GvZSH2kwC6cOnJWHe7xY-8" edge="1">
          <mxGeometry width="50" height="50" relative="1" as="geometry">
            <mxPoint x="460" y="230" as="sourcePoint" />
            <mxPoint x="550" y="230" as="targetPoint" />
          </mxGeometry>
        </mxCell>
        <mxCell id="GvZSH2kwC6cOnJWHe7xY-52" value="" style="rhombus;whiteSpace=wrap;html=1;fontFamily=Times New Roman;fontSize=20;" parent="1" vertex="1">
          <mxGeometry x="470" y="225" width="10" height="10" as="geometry" />
        </mxCell>
        <mxCell id="GvZSH2kwC6cOnJWHe7xY-53" value="" style="endArrow=none;html=1;fontFamily=Times New Roman;fontSize=20;exitX=1;exitY=0.5;exitDx=0;exitDy=0;entryX=0;entryY=0.5;entryDx=0;entryDy=0;" parent="1" source="GvZSH2kwC6cOnJWHe7xY-6" target="GvZSH2kwC6cOnJWHe7xY-52" edge="1">
          <mxGeometry width="50" height="50" relative="1" as="geometry">
            <mxPoint x="460" y="230" as="sourcePoint" />
            <mxPoint x="550" y="230" as="targetPoint" />
          </mxGeometry>
        </mxCell>
        <mxCell id="GvZSH2kwC6cOnJWHe7xY-54" value="" style="endArrow=none;html=1;fontFamily=Times New Roman;fontSize=20;" parent="1" edge="1">
          <mxGeometry width="50" height="50" relative="1" as="geometry">
            <mxPoint x="460" y="235" as="sourcePoint" />
            <mxPoint x="470" y="230" as="targetPoint" />
          </mxGeometry>
        </mxCell>
        <mxCell id="GvZSH2kwC6cOnJWHe7xY-64" value="" style="endArrow=none;html=1;fontFamily=Times New Roman;fontSize=20;entryX=0;entryY=0.5;entryDx=0;entryDy=0;" parent="1" target="GvZSH2kwC6cOnJWHe7xY-52" edge="1">
          <mxGeometry width="50" height="50" relative="1" as="geometry">
            <mxPoint x="460" y="225" as="sourcePoint" />
            <mxPoint x="470" y="220" as="targetPoint" />
          </mxGeometry>
        </mxCell>
        <mxCell id="19oMdDzzHpyb4r0OYOd1-1" value="&lt;font size=&quot;1&quot;&gt;&lt;font style=&quot;font-size: 20px&quot; face=&quot;Times New Roman&quot;&gt;UserAuthor&lt;/font&gt;&lt;/font&gt;" style="rounded=1;whiteSpace=wrap;html=1;" parent="1" vertex="1">
          <mxGeometry x="340" y="330" width="120" height="60" as="geometry" />
        </mxCell>
        <mxCell id="19oMdDzzHpyb4r0OYOd1-6" value="" style="endArrow=none;html=1;fontFamily=Times New Roman;fontSize=20;" parent="1" edge="1">
          <mxGeometry width="50" height="50" relative="1" as="geometry">
            <mxPoint x="170" y="200" as="sourcePoint" />
            <mxPoint x="190" y="200" as="targetPoint" />
          </mxGeometry>
        </mxCell>
        <mxCell id="19oMdDzzHpyb4r0OYOd1-9" value="" style="endArrow=none;html=1;fontFamily=Times New Roman;fontSize=20;exitX=0.5;exitY=0;exitDx=0;exitDy=0;" parent="1" edge="1">
          <mxGeometry width="50" height="50" relative="1" as="geometry">
            <mxPoint x="400" y="330" as="sourcePoint" />
            <mxPoint x="400" y="260" as="targetPoint" />
          </mxGeometry>
        </mxCell>
        <mxCell id="19oMdDzzHpyb4r0OYOd1-10" value="" style="endArrow=none;html=1;fontFamily=Times New Roman;fontSize=20;entryX=0.553;entryY=1.007;entryDx=0;entryDy=0;entryPerimeter=0;" parent="1" edge="1">
          <mxGeometry width="50" height="50" relative="1" as="geometry">
            <mxPoint x="400" y="270" as="sourcePoint" />
            <mxPoint x="406.35999999999996" y="260.42" as="targetPoint" />
          </mxGeometry>
        </mxCell>
        <mxCell id="19oMdDzzHpyb4r0OYOd1-11" value="" style="endArrow=none;html=1;fontFamily=Times New Roman;fontSize=20;entryX=0.453;entryY=1.009;entryDx=0;entryDy=0;entryPerimeter=0;" parent="1" edge="1">
          <mxGeometry width="50" height="50" relative="1" as="geometry">
            <mxPoint x="400" y="270" as="sourcePoint" />
            <mxPoint x="394.36" y="260.53999999999996" as="targetPoint" />
          </mxGeometry>
        </mxCell>
        <mxCell id="19oMdDzzHpyb4r0OYOd1-12" value="" style="endArrow=none;html=1;fontFamily=Times New Roman;fontSize=20;" parent="1" edge="1">
          <mxGeometry width="50" height="50" relative="1" as="geometry">
            <mxPoint x="390" y="320" as="sourcePoint" />
            <mxPoint x="410" y="320" as="targetPoint" />
          </mxGeometry>
        </mxCell>
        <mxCell id="19oMdDzzHpyb4r0OYOd1-14" value="" style="endArrow=none;html=1;fontFamily=Times New Roman;fontSize=20;" parent="1" edge="1">
          <mxGeometry width="50" height="50" relative="1" as="geometry">
            <mxPoint x="390" y="310" as="sourcePoint" />
            <mxPoint x="410" y="310" as="targetPoint" />
          </mxGeometry>
        </mxCell>
        <mxCell id="4CY93P8wAlW1a-aKWTHy-6" value="" style="endArrow=none;html=1;fontFamily=Times New Roman;fontSize=20;exitX=1;exitY=0.5;exitDx=0;exitDy=0;entryX=0;entryY=0.5;entryDx=0;entryDy=0;" edge="1" parent="1" source="4CY93P8wAlW1a-aKWTHy-7" target="GvZSH2kwC6cOnJWHe7xY-7">
          <mxGeometry width="50" height="50" relative="1" as="geometry">
            <mxPoint x="460" y="360" as="sourcePoint" />
            <mxPoint x="550" y="360" as="targetPoint" />
          </mxGeometry>
        </mxCell>
        <mxCell id="4CY93P8wAlW1a-aKWTHy-7" value="" style="rhombus;whiteSpace=wrap;html=1;fontFamily=Times New Roman;fontSize=20;" vertex="1" parent="1">
          <mxGeometry x="470" y="355" width="10" height="10" as="geometry" />
        </mxCell>
        <mxCell id="4CY93P8wAlW1a-aKWTHy-8" value="" style="endArrow=none;html=1;fontFamily=Times New Roman;fontSize=20;exitX=1;exitY=0.5;exitDx=0;exitDy=0;entryX=0;entryY=0.5;entryDx=0;entryDy=0;" edge="1" parent="1" target="4CY93P8wAlW1a-aKWTHy-7">
          <mxGeometry width="50" height="50" relative="1" as="geometry">
            <mxPoint x="460" y="360" as="sourcePoint" />
            <mxPoint x="550" y="360" as="targetPoint" />
          </mxGeometry>
        </mxCell>
        <mxCell id="4CY93P8wAlW1a-aKWTHy-9" value="" style="endArrow=none;html=1;fontFamily=Times New Roman;fontSize=20;" edge="1" parent="1">
          <mxGeometry width="50" height="50" relative="1" as="geometry">
            <mxPoint x="460" y="365" as="sourcePoint" />
            <mxPoint x="470" y="360" as="targetPoint" />
          </mxGeometry>
        </mxCell>
        <mxCell id="4CY93P8wAlW1a-aKWTHy-10" value="" style="endArrow=none;html=1;fontFamily=Times New Roman;fontSize=20;entryX=0;entryY=0.5;entryDx=0;entryDy=0;" edge="1" parent="1" target="4CY93P8wAlW1a-aKWTHy-7">
          <mxGeometry width="50" height="50" relative="1" as="geometry">
            <mxPoint x="460" y="355" as="sourcePoint" />
            <mxPoint x="470" y="350" as="targetPoint" />
          </mxGeometry>
        </mxCell>
        <mxCell id="4CY93P8wAlW1a-aKWTHy-11" value="" style="endArrow=none;html=1;fontFamily=Times New Roman;fontSize=20;exitX=0.5;exitY=0;exitDx=0;exitDy=0;" edge="1" parent="1" source="4CY93P8wAlW1a-aKWTHy-16">
          <mxGeometry width="50" height="50" relative="1" as="geometry">
            <mxPoint x="630" y="330" as="sourcePoint" />
            <mxPoint x="630" y="260" as="targetPoint" />
          </mxGeometry>
        </mxCell>
        <mxCell id="4CY93P8wAlW1a-aKWTHy-12" value="" style="endArrow=none;html=1;fontFamily=Times New Roman;fontSize=20;entryX=0.553;entryY=1.007;entryDx=0;entryDy=0;entryPerimeter=0;" edge="1" parent="1">
          <mxGeometry width="50" height="50" relative="1" as="geometry">
            <mxPoint x="630" y="270" as="sourcePoint" />
            <mxPoint x="636.3599999999999" y="260.42" as="targetPoint" />
          </mxGeometry>
        </mxCell>
        <mxCell id="4CY93P8wAlW1a-aKWTHy-13" value="" style="endArrow=none;html=1;fontFamily=Times New Roman;fontSize=20;entryX=0.453;entryY=1.009;entryDx=0;entryDy=0;entryPerimeter=0;" edge="1" parent="1">
          <mxGeometry width="50" height="50" relative="1" as="geometry">
            <mxPoint x="630" y="270" as="sourcePoint" />
            <mxPoint x="624.3599999999999" y="260.53999999999996" as="targetPoint" />
          </mxGeometry>
        </mxCell>
        <mxCell id="4CY93P8wAlW1a-aKWTHy-14" value="" style="endArrow=none;html=1;fontFamily=Times New Roman;fontSize=20;" edge="1" parent="1">
          <mxGeometry width="50" height="50" relative="1" as="geometry">
            <mxPoint x="620" y="320" as="sourcePoint" />
            <mxPoint x="640" y="320" as="targetPoint" />
          </mxGeometry>
        </mxCell>
        <mxCell id="4CY93P8wAlW1a-aKWTHy-15" value="" style="endArrow=none;html=1;fontFamily=Times New Roman;fontSize=20;" edge="1" parent="1">
          <mxGeometry width="50" height="50" relative="1" as="geometry">
            <mxPoint x="620" y="310" as="sourcePoint" />
            <mxPoint x="640" y="310" as="targetPoint" />
          </mxGeometry>
        </mxCell>
        <mxCell id="4CY93P8wAlW1a-aKWTHy-16" value="" style="rhombus;whiteSpace=wrap;html=1;fontFamily=Times New Roman;fontSize=20;" vertex="1" parent="1">
          <mxGeometry x="625" y="270" width="10" height="10" as="geometry" />
        </mxCell>
        <mxCell id="4CY93P8wAlW1a-aKWTHy-17" value="" style="endArrow=none;html=1;fontFamily=Times New Roman;fontSize=20;exitX=0.5;exitY=0;exitDx=0;exitDy=0;" edge="1" parent="1" target="4CY93P8wAlW1a-aKWTHy-16">
          <mxGeometry width="50" height="50" relative="1" as="geometry">
            <mxPoint x="630" y="330" as="sourcePoint" />
            <mxPoint x="630" y="260" as="targetPoint" />
          </mxGeometry>
        </mxCell>
        <mxCell id="4CY93P8wAlW1a-aKWTHy-19" value="" style="endArrow=none;html=1;fontFamily=Times New Roman;fontSize=20;" edge="1" parent="1">
          <mxGeometry width="50" height="50" relative="1" as="geometry">
            <mxPoint x="559.72" y="370" as="sourcePoint" />
            <mxPoint x="559.72" y="350" as="targetPoint" />
          </mxGeometry>
        </mxCell>
        <mxCell id="4CY93P8wAlW1a-aKWTHy-20" value="" style="endArrow=none;html=1;fontFamily=Times New Roman;fontSize=20;" edge="1" parent="1">
          <mxGeometry width="50" height="50" relative="1" as="geometry">
            <mxPoint x="549.72" y="370" as="sourcePoint" />
            <mxPoint x="549.72" y="350" as="targetPoint" />
          </mxGeometry>
        </mxCell>
        <mxCell id="4CY93P8wAlW1a-aKWTHy-21" value="" style="endArrow=none;html=1;fontFamily=Times New Roman;fontSize=20;" edge="1" parent="1">
          <mxGeometry width="50" height="50" relative="1" as="geometry">
            <mxPoint x="560" y="240" as="sourcePoint" />
            <mxPoint x="560" y="220" as="targetPoint" />
          </mxGeometry>
        </mxCell>
        <mxCell id="4CY93P8wAlW1a-aKWTHy-22" value="" style="endArrow=none;html=1;fontFamily=Times New Roman;fontSize=20;" edge="1" parent="1">
          <mxGeometry width="50" height="50" relative="1" as="geometry">
            <mxPoint x="550" y="240" as="sourcePoint" />
            <mxPoint x="550" y="220" as="targetPoint" />
          </mxGeometry>
        </mxCell>
        <mxCell id="4CY93P8wAlW1a-aKWTHy-24" value="" style="rhombus;whiteSpace=wrap;html=1;fontFamily=Times New Roman;fontSize=20;" vertex="1" parent="1">
          <mxGeometry x="395" y="270" width="10" height="10" as="geometry" />
        </mxCell>
        <mxCell id="4CY93P8wAlW1a-aKWTHy-25" value="" style="rhombus;whiteSpace=wrap;html=1;fontFamily=Times New Roman;fontSize=20;" vertex="1" parent="1">
          <mxGeometry x="395" y="180" width="10" height="10" as="geometry" />
        </mxCell>
        <mxCell id="4CY93P8wAlW1a-aKWTHy-26" value="" style="rhombus;whiteSpace=wrap;html=1;fontFamily=Times New Roman;fontSize=20;" vertex="1" parent="1">
          <mxGeometry x="240" y="225" width="10" height="10" as="geometry" />
        </mxCell>
        <mxCell id="4CY93P8wAlW1a-aKWTHy-27" value="" style="endArrow=none;html=1;fontFamily=Times New Roman;fontSize=20;exitX=0;exitY=0.5;exitDx=0;exitDy=0;entryX=1;entryY=0.5;entryDx=0;entryDy=0;" edge="1" parent="1" source="GvZSH2kwC6cOnJWHe7xY-6" target="4CY93P8wAlW1a-aKWTHy-26">
          <mxGeometry width="50" height="50" relative="1" as="geometry">
            <mxPoint x="340" y="230" as="sourcePoint" />
            <mxPoint x="230" y="230" as="targetPoint" />
          </mxGeometry>
        </mxCell>
        <mxCell id="4CY93P8wAlW1a-aKWTHy-28" value="" style="rhombus;whiteSpace=wrap;html=1;fontFamily=Times New Roman;fontSize=20;" vertex="1" parent="1">
          <mxGeometry x="165" y="140" width="10" height="10" as="geometry" />
        </mxCell>
      </root>
    </mxGraphModel>
  </diagram>
</mxfile>
